<svg width="2000" height="958" viewBox="0 0 2000 958" fill="none" xmlns="http://www.w3.org/2000/svg">
<path d="M1995.98 131.56V289.2H1455.78V386.6H1968.88V534.2H1455.78V640.64H2000V801.3H1254.96V131.56H1995.98Z" fill="#17131B"/>
<path d="M1451.68 98.88C1323.86 35.62 1179.94 0 1027.68 0C875.422 0 738.122 33.98 612.522 94.54C604.622 98.36 599.542 106.3 599.542 115.08V957.36L1454.8 101.92C1454.08 100.64 1453.02 99.58 1451.68 98.88Z" fill="url(#paint0_radial_6248_28898)"/>
<path d="M1454.8 101.923L599.542 957.363H864.842C877.762 957.363 890.162 952.223 899.302 943.083L1455.86 386.423L1455.82 105.663C1455.82 104.323 1455.44 103.043 1454.8 101.923Z" fill="url(#paint1_linear_6248_28898)"/>
<path d="M0 135.18H535.18C554.58 135.18 570.66 135.52 583.38 136.18C596.08 136.86 606.48 137.52 614.5 138.18C622.54 138.86 631.22 139.86 640.6 141.2C672.06 145.9 698.34 153.24 719.42 163.28C740.5 173.32 757.24 187.721 769.62 206.461C782 225.201 790.7 249.141 795.72 278.261C800.74 307.381 803.24 343.361 803.24 386.201C803.24 423.701 801.4 455.661 797.72 482.081C794.04 508.541 788 530.961 779.64 549.361C771.26 567.781 760.22 582.661 746.5 594.041C732.78 605.421 715.88 614.801 695.8 622.161C684.4 626.181 672.52 629.361 660.16 631.701C647.76 634.061 632.88 635.881 615.48 637.221C598.06 638.561 576.98 639.581 552.22 640.241C527.44 640.921 497 641.241 460.84 641.241H203.82V804.901H0V135.18ZM458.88 473.561C482.3 473.561 500.7 473.401 514.1 473.061C527.48 472.741 538.02 472.221 545.72 471.561C553.4 470.901 559.1 469.901 562.78 468.541C566.46 467.201 570.32 465.201 574.32 462.521C583.68 456.501 590.22 448.141 593.9 437.421C597.58 426.721 599.42 409.641 599.42 386.221C599.42 362.801 596.9 344.401 591.88 333.001C586.86 321.621 577.66 313.601 564.26 308.901C560.9 307.561 557.74 306.561 554.72 305.881C551.7 305.221 546.84 304.721 540.16 304.381C533.46 304.041 523.76 303.721 511.04 303.381C498.32 303.061 480.92 302.881 458.82 302.881H203.82V473.581H458.86L458.88 473.561Z" fill="#17131B"/>
<defs>
<radialGradient id="paint0_radial_6248_28898" cx="0" cy="0" r="1" gradientUnits="userSpaceOnUse" gradientTransform="translate(1024.52 959.74) scale(954.12 954.12)">
<stop stop-color="#D59EFF"/>
<stop offset="0.14" stop-color="#C881FF"/>
<stop offset="0.44" stop-color="#AF48FF"/>
<stop offset="0.66" stop-color="#9F24FF"/>
<stop offset="0.78" stop-color="#9A17FF"/>
<stop offset="0.85" stop-color="#9817FC"/>
<stop offset="0.89" stop-color="#9519F4"/>
<stop offset="0.92" stop-color="#8E1BE7"/>
<stop offset="0.95" stop-color="#851FD3"/>
<stop offset="0.97" stop-color="#7924BA"/>
<stop offset="0.99" stop-color="#6B2A9C"/>
<stop offset="1" stop-color="#662D91"/>
</radialGradient>
<linearGradient id="paint1_linear_6248_28898" x1="1027.7" y1="957.363" x2="1027.7" y2="103.983" gradientUnits="userSpaceOnUse">
<stop stop-color="#331647"/>
<stop offset="0.09" stop-color="#441D60"/>
<stop offset="0.33" stop-color="#6B2F98"/>
<stop offset="0.54" stop-color="#8A3CC4"/>
<stop offset="0.73" stop-color="#A046E4"/>
<stop offset="0.89" stop-color="#AE4CF8"/>
<stop offset="1" stop-color="#B34FFF"/>
</linearGradient>
</defs>
</svg>
