<svg width="2000" height="958" viewBox="0 0 2000 958" fill="none" xmlns="http://www.w3.org/2000/svg">
<path d="M1995.98 131.56V289.2H1455.78V386.6H1968.88V534.2H1455.78V640.64H2000V801.3H1254.96V131.56H1995.98Z" fill="white"/>
<path d="M1451.68 98.88C1323.86 35.62 1179.94 0 1027.68 0C875.422 0 738.122 33.98 612.522 94.54C604.622 98.36 599.542 106.3 599.542 115.08V957.36L1454.8 101.92C1454.08 100.64 1453.02 99.58 1451.68 98.88Z" fill="url(#paint0_radial_6248_28908)"/>
<path d="M1454.8 101.923L599.542 957.363H864.842C877.762 957.363 890.162 952.223 899.302 943.083L1455.86 386.423L1455.82 105.663C1455.82 104.323 1455.44 103.043 1454.8 101.923Z" fill="url(#paint1_linear_6248_28908)"/>
<path d="M0 135.18H535.18C554.58 135.18 570.66 135.52 583.38 136.18C596.08 136.86 606.48 137.52 614.5 138.18C622.54 138.86 631.22 139.86 640.6 141.2C672.06 145.9 698.34 153.24 719.42 163.28C740.5 173.32 757.24 187.72 769.62 206.46C782 225.2 790.7 249.14 795.72 278.26C800.74 307.38 803.24 343.36 803.24 386.2C803.24 423.7 801.4 455.66 797.72 482.08C794.04 508.54 788 530.96 779.64 549.36C771.26 567.78 760.22 582.66 746.5 594.04C732.78 605.42 715.88 614.8 695.8 622.16C684.4 626.18 672.52 629.36 660.16 631.7C647.76 634.06 632.88 635.88 615.48 637.22C598.06 638.56 576.98 639.58 552.22 640.24C527.44 640.92 497 641.24 460.84 641.24H203.82V804.9H0V135.18ZM458.88 473.56C482.3 473.56 500.7 473.4 514.1 473.06C527.48 472.74 538.02 472.22 545.72 471.56C553.4 470.9 559.1 469.9 562.78 468.54C566.46 467.2 570.32 465.2 574.32 462.52C583.68 456.5 590.22 448.14 593.9 437.42C597.58 426.72 599.42 409.64 599.42 386.22C599.42 362.8 596.9 344.4 591.88 333C586.86 321.62 577.66 313.6 564.26 308.9C560.9 307.56 557.74 306.56 554.72 305.88C551.7 305.22 546.84 304.72 540.16 304.38C533.46 304.04 523.76 303.72 511.04 303.38C498.32 303.06 480.92 302.88 458.82 302.88H203.82V473.58H458.86L458.88 473.56Z" fill="white"/>
<defs>
<radialGradient id="paint0_radial_6248_28908" cx="0" cy="0" r="1" gradientUnits="userSpaceOnUse" gradientTransform="translate(1024.52 959.74) scale(954.12 954.12)">
<stop stop-color="#D59EFF"/>
<stop offset="0.14" stop-color="#C881FF"/>
<stop offset="0.44" stop-color="#AF48FF"/>
<stop offset="0.66" stop-color="#9F24FF"/>
<stop offset="0.78" stop-color="#9A17FF"/>
<stop offset="0.85" stop-color="#9817FC"/>
<stop offset="0.89" stop-color="#9519F4"/>
<stop offset="0.92" stop-color="#8E1BE7"/>
<stop offset="0.95" stop-color="#851FD3"/>
<stop offset="0.97" stop-color="#7924BA"/>
<stop offset="0.99" stop-color="#6B2A9C"/>
<stop offset="1" stop-color="#662D91"/>
</radialGradient>
<linearGradient id="paint1_linear_6248_28908" x1="1027.7" y1="957.363" x2="1027.7" y2="103.983" gradientUnits="userSpaceOnUse">
<stop stop-color="#331647"/>
<stop offset="0.09" stop-color="#441D60"/>
<stop offset="0.33" stop-color="#6B2F98"/>
<stop offset="0.54" stop-color="#8A3CC4"/>
<stop offset="0.73" stop-color="#A046E4"/>
<stop offset="0.89" stop-color="#AE4CF8"/>
<stop offset="1" stop-color="#B34FFF"/>
</linearGradient>
</defs>
</svg>
