<svg width="19" height="17" viewBox="0 0 19 17" fill="none" xmlns="http://www.w3.org/2000/svg">
<path d="M17 12.5039V11.5C17 10.3954 16.1046 9.5 15 9.5C13.8954 9.5 13 10.3954 13 11.5V12.5039M13.1 16.5H16.9C17.4601 16.5 17.7401 16.5 17.954 16.391C18.1422 16.2951 18.2951 16.1422 18.391 15.954C18.5 15.7401 18.5 15.4601 18.5 14.9V14.1C18.5 13.5399 18.5 13.2599 18.391 13.046C18.2951 12.8578 18.1422 12.7049 17.954 12.609C17.7401 12.5 17.4601 12.5 16.9 12.5H13.1C12.5399 12.5 12.2599 12.5 12.046 12.609C11.8578 12.7049 11.7049 12.8578 11.609 13.046C11.5 13.2599 11.5 13.5399 11.5 14.1V14.9C11.5 15.4601 11.5 15.7401 11.609 15.954C11.7049 16.1422 11.8578 16.2951 12.046 16.391C12.2599 16.5 12.5399 16.5 13.1 16.5Z" stroke="white" stroke-linecap="round" stroke-linejoin="round"/>
<path d="M18.5 8.5V6.5V3.7C18.5 3.56676 18.5 3.44144 18.4996 3.32333M3.32333 0.500367C3.7383 0.86683 4 1.40285 4 2C4 3.10457 3.10457 4 2 4C1.40285 4 0.86683 3.7383 0.500367 3.32333M3.32333 0.500367C3.44144 0.5 3.56676 0.5 3.7 0.5H15.3C15.4332 0.5 15.5586 0.5 15.6767 0.500367M3.32333 0.500367C2.44852 0.503085 1.96895 0.525931 1.59202 0.717987C1.21569 0.909734 0.909734 1.21569 0.717987 1.59202C0.525931 1.96895 0.503085 2.44852 0.500367 3.32333M0.500367 3.32333C0.5 3.44144 0.5 3.56676 0.5 3.7V9.3C0.5 9.43324 0.5 9.55856 0.500367 9.67667M0.500367 9.67667C0.86683 9.2617 1.40285 9 2 9C3.10457 9 4 9.89543 4 11C4 11.5971 3.7383 12.1332 3.32333 12.4996M0.500367 9.67667C0.503085 10.5515 0.525931 11.031 0.717987 11.408C0.909734 11.7843 1.21569 12.0903 1.59202 12.282C1.96895 12.4741 2.44852 12.4969 3.32333 12.4996M3.32333 12.4996C3.44144 12.5 3.56676 12.5 3.7 12.5H9M18.4996 3.32333C18.1332 3.7383 17.5971 4 17 4C15.8954 4 15 3.10457 15 2C15 1.40285 15.2617 0.86683 15.6767 0.500367M18.4996 3.32333C18.4969 2.44852 18.4741 1.96895 18.282 1.59202C18.0903 1.21569 17.7843 0.909734 17.408 0.717987C17.0311 0.525931 16.5515 0.503085 15.6767 0.500367M11.5 6.5C11.5 7.60457 10.6046 8.5 9.5 8.5C8.39543 8.5 7.5 7.60457 7.5 6.5C7.5 5.39543 8.39543 4.5 9.5 4.5C10.6046 4.5 11.5 5.39543 11.5 6.5Z" stroke="white" stroke-linecap="round" stroke-linejoin="round"/>
</svg>
