<svg width="17" height="19" viewBox="0 0 17 19" fill="none" xmlns="http://www.w3.org/2000/svg">
<path d="M16.5 0.5H0.5M16.5 18.5H0.5M15.4879 0.5C15.4879 0.5 15.7278 3.24264 14.089 5C12.4503 6.75736 8.49414 9.5 8.49414 9.5C8.49414 9.5 12.4503 12.2426 14.089 14C15.7278 15.7574 15.4879 18.5 15.4879 18.5M1.50623 0.5C1.50623 0.5 1.26635 3.24264 2.9051 5C4.54385 6.75736 8.5 9.5 8.5 9.5C8.5 9.5 4.54385 12.2426 2.9051 14C1.26635 15.7574 1.50623 18.5 1.50623 18.5M11.5 15.5H5.5M10.5 3.5H6.5" stroke="white" stroke-linecap="round" stroke-linejoin="round"/>
</svg>
