<svg preserveAspectRatio="none" width="100%" height="100%" overflow="visible" style="display: block;" viewBox="0 0 33.0001 16" fill="none" xmlns="http://www.w3.org/2000/svg">
<g id="Group">
<path id="Vector" d="M32.9338 2.19869V4.83327H24.0205V6.46108H32.4867V8.92786H24.0205V10.7068H33.0001V13.3918H20.707V2.19869H32.9338Z" fill="var(--fill-0, #24201C)"/>
<g id="Group_2">
<path id="Vector_2" d="M23.9528 1.65254C21.8438 0.595304 19.4691 0 16.9568 0C14.4445 0 12.1791 0.567895 10.1067 1.58001C9.97635 1.64385 9.89253 1.77655 9.89253 1.92329V16L24.0043 1.70335C23.9924 1.68196 23.9749 1.66424 23.9528 1.65254Z" fill="url(#paint0_radial_0_5)"/>
<path id="Vector_3" d="M24.0043 1.70338L9.89253 16H14.27C14.4832 16 14.6878 15.9141 14.8386 15.7614L24.0218 6.45812L24.0211 1.76589C24.0211 1.74349 24.0149 1.7221 24.0043 1.70338Z" fill="url(#paint1_linear_0_5)"/>
</g>
<path id="Vector_4" d="M0.000119395 2.25921H8.83059C9.15069 2.25921 9.41601 2.26489 9.62589 2.27592C9.83544 2.28728 10.007 2.29832 10.1394 2.30935C10.272 2.32071 10.4152 2.33742 10.57 2.35982C11.0891 2.43837 11.5227 2.56104 11.8705 2.72883C12.2184 2.89663 12.4946 3.13729 12.6988 3.45048C12.9031 3.76368 13.0467 4.16378 13.1295 4.65045C13.2123 5.13712 13.2536 5.73844 13.2536 6.45441C13.2536 7.08114 13.2232 7.61527 13.1625 8.05682C13.1018 8.49903 13.0021 8.87373 12.8642 9.18124C12.7259 9.48909 12.5437 9.73777 12.3174 9.92796C12.091 10.1182 11.8121 10.2749 11.4808 10.3979C11.2927 10.4651 11.0967 10.5183 10.8928 10.5574C10.6882 10.5968 10.4426 10.6272 10.1555 10.6496C9.86811 10.672 9.52029 10.6891 9.11175 10.7001C8.70288 10.7115 8.20062 10.7168 7.60398 10.7168H3.36315V13.452H0.000119395V2.25921ZM7.57164 7.91443C7.95807 7.91443 8.26167 7.91175 8.48277 7.90607C8.70354 7.90072 8.87745 7.89203 9.0045 7.881C9.13122 7.86997 9.22527 7.85326 9.28599 7.83053C9.34671 7.80813 9.4104 7.77471 9.4764 7.72992C9.63084 7.62931 9.73875 7.48959 9.79947 7.31043C9.86019 7.13161 9.89055 6.84616 9.89055 6.45475C9.89055 6.06334 9.84897 5.75582 9.76614 5.5653C9.68331 5.37511 9.53151 5.24107 9.31041 5.16253C9.25497 5.14013 9.20283 5.12342 9.153 5.11205C9.10317 5.10102 9.02298 5.09267 8.91276 5.08698C8.80221 5.0813 8.64216 5.07595 8.43228 5.07027C8.2224 5.06492 7.9353 5.06192 7.57065 5.06192H3.36315V7.91476H7.57131L7.57164 7.91443Z" fill="var(--fill-0, #24201C)"/>
</g>
<defs>
<radialGradient id="paint0_radial_0_5" cx="0" cy="0" r="1" gradientUnits="userSpaceOnUse" gradientTransform="translate(16.9047 16.0398) scale(15.743 15.9459)">
<stop stop-color="#D59EFF"/>
<stop offset="0.14" stop-color="#C881FF"/>
<stop offset="0.44" stop-color="#AF48FF"/>
<stop offset="0.66" stop-color="#9F24FF"/>
<stop offset="0.78" stop-color="#9A17FF"/>
<stop offset="0.85" stop-color="#9817FC"/>
<stop offset="0.89" stop-color="#9519F4"/>
<stop offset="0.92" stop-color="#8E1BE7"/>
<stop offset="0.95" stop-color="#851FD3"/>
<stop offset="0.97" stop-color="#7924BA"/>
<stop offset="0.99" stop-color="#6B2A9C"/>
<stop offset="1" stop-color="#662D91"/>
</radialGradient>
<linearGradient id="paint1_linear_0_5" x1="16.9572" y1="16" x2="16.9572" y2="1.73781" gradientUnits="userSpaceOnUse">
<stop stop-color="#331647"/>
<stop offset="0.09" stop-color="#441D60"/>
<stop offset="0.33" stop-color="#6B2F98"/>
<stop offset="0.54" stop-color="#8A3CC4"/>
<stop offset="0.73" stop-color="#A046E4"/>
<stop offset="0.89" stop-color="#AE4CF8"/>
<stop offset="1" stop-color="#B34FFF"/>
</linearGradient>
</defs>
</svg>
